PathFileType	4	(X/Y/Z)	Kaydara	
DataRate	CameraRate	NumFrames	NumMarkers	Units	OrigDataRate	OrigDataStartFrame	OrigNumFrames	
240.00	240.00	4	72	mm	240.00	90	359	
Frame#	Time	Hips			RightUpLeg			RightLeg			RightFoot			RightFoot_End			LeftUpLeg			LeftLeg			LeftFoot			LeftFoot_End			Spine			Spine1			Spine2			Spine3			Neck			Head			Head_End			RightShoulder			RightArm			RightForeArm			RightHand			RightHandThumb1			RightHandThumb2			RightHandThumb3			RightHandThumb3_End			RightInHandIndex			RightHandIndex1			RightHandIndex2			RightHandIndex3			RightHandIndex3_End			RightInHandMiddle			RightHandMiddle1			RightHandMiddle2			RightHandMiddle3			RightHandMiddle3_End			RightInHandRing			RightHandRing1			RightHandRing2			RightHandRing3			RightHandRing3_End			RightInHandPinky			RightHandPinky1			RightHandPinky2			RightHandPinky3			RightHandPinky3_End			LeftShoulder			LeftArm			LeftForeArm			LeftHand			LeftHandThumb1			LeftHandThumb2			LeftHandThumb3			LeftHandThumb3_End			LeftInHandIndex			LeftHandIndex1			LeftHandIndex2			LeftHandIndex3			LeftHandIndex3_End			LeftInHandMiddle			LeftHandMiddle1			LeftHandMiddle2			LeftHandMiddle3			LeftHandMiddle3_End			LeftInHandRing			LeftHandRing1			LeftHandRing2			LeftHandRing3			LeftHandRing3_End			LeftInHandPinky			LeftHandPinky1			LeftHandPinky2			LeftHandPinky3			LeftHandPinky3_End			
		X1	Y1	Z1	X2	Y2	Z2	X3	Y3	Z3	X4	Y4	Z4	X5	Y5	Z5	X6	Y6	Z6	X7	Y7	Z7	X8	Y8	Z8	X9	Y9	Z9	X10	Y10	Z10	X11	Y11	Z11	X12	Y12	Z12	X13	Y13	Z13	X14	Y14	Z14	X15	Y15	Z15	X16	Y16	Z16	X17	Y17	Z17	X18	Y18	Z18	X19	Y19	Z19	X20	Y20	Z20	X21	Y21	Z21	X22	Y22	Z22	X23	Y23	Z23	X24	Y24	Z24	X25	Y25	Z25	X26	Y26	Z26	X27	Y27	Z27	X28	Y28	Z28	X29	Y29	Z29	X30	Y30	Z30	X31	Y31	Z31	X32	Y32	Z32	X33	Y33	Z33	X34	Y34	Z34	X35	Y35	Z35	X36	Y36	Z36	X37	Y37	Z37	X38	Y38	Z38	X39	Y39	Z39	X40	Y40	Z40	X41	Y41	Z41	X42	Y42	Z42	X43	Y43	Z43	X44	Y44	Z44	X45	Y45	Z45	X46	Y46	Z46	X47	Y47	Z47	X48	Y48	Z48	X49	Y49	Z49	X50	Y50	Z50	X51	Y51	Z51	X52	Y52	Z52	X53	Y53	Z53	X54	Y54	Z54	X55	Y55	Z55	X56	Y56	Z56	X57	Y57	Z57	X58	Y58	Z58	X59	Y59	Z59	X60	Y60	Z60	X61	Y61	Z61	X62	Y62	Z62	X63	Y63	Z63	X64	Y64	Z64	X65	Y65	Z65	X66	Y66	Z66	X67	Y67	Z67	X68	Y68	Z68	X69	Y69	Z69	X70	Y70	Z70	X71	Y71	Z71	X72	Y72	Z72	

90	0.371	198.9409999999998	914.58397	126.699	251.53351999999995	895.1885100000001	51.99364	157.63918999999987	498.73430999999994	-45.46616999999999	143.28996000000006	107.51102	-122.77774	-8.318409999999858	30.44092	-35.52115	160.92320000000018	907.9751	212.80057999999997	71.71327999999994	505.50535	286.76016	-2.6584299999994982	80.47677	372.56347	-123.9399199999998	-2.3468600000000004	250.21292000000003	131.2231700000002	1031.4107300000003	79.20958	68.22965999999997	1086.42677	29.70896	-0.2495199999993929	1136.3359	-25.64067	-69.29994999999963	1172.0244700000003	-83.96949	-144.16901999999936	1210.7189200000003	-144.61013000000003	-213.94792999999936	1246.4449799999998	-197.21207000000004	-353.3998499999998	1323.35534	-206.05548	-99.46515	1197.7782	-148.97804	-43.45318000000043	1180.57486	-263.35813999999993	39.443889999999556	929.78242	-276.75109000000003	36.50924000000032	764.84857	-476.72423999999995	52.03066000000035	776.34112	-511.70892000000003	41.656879999999546	776.09325	-547.04418	33.058610000000044	771.7690599999999	-570.74801	24.715209999999388	764.61261	-589.73581	50.97407000000021	762.43559	-511.9580399999999	57.39575000000059	743.6856500000001	-561.24709	48.80623000000014	731.05247	-594.05877	36.91928999999982	728.26293	-610.5521199999998	22.66442999999981	729.3702000000002	-621.56917	46.39289000000008	751.8163099999999	-507.71394	50.182159999999385	727.7840900000001	-553.4937800000001	40.167669999999816	712.6589200000001	-588.57612	25.51861000000008	708.6505	-608.12839	9.77150999999958	709.5494999999999	-620.0146499999998	43.11731000000054	744.75717	-503.47672	44.03520000000026	716.98902	-540.8820200000001	34.643380000000434	702.4746600000001	-570.64987	20.161009999999806	697.90129	-589.07939	5.1878700000006575	698.4115799999998	-600.05162	38.172129999999925	737.4407100000001	-497.01533	36.38648000000012	707.33758	-527.4195500000001	27.826350000000275	693.7595400000001	-549.8295199999999	16.75998999999956	689.47777	-562.58179	3.206830000000082	689.3854199999998	-571.90412	-139.20335999999952	1198.17008	-98.77426000000001	-187.46702000000005	1141.0583900000001	4.312380000000001	-52.630959999999504	982.6918800000001	-158.39249	16.20977000000039	839.45054	-362.95148	49.337180000000444	850.45596	-382.40338999999994	83.18488999999954	836.8916400000002	-387.56088	104.61616000000049	823.5817499999999	-391.80908	120.6515500000005	809.1805800000001	-395.91226	44.4669700000004	838.9473599999999	-388.59817	80.74197000000004	818.07811	-421.32134999999994	107.25349000000006	796.4402299999999	-433.10802	123.36016000000018	783.84928	-431.3318499999999	136.43832999999995	774.00874	-423.7208299999999	37.443460000000414	828.8268999999999	-388.7227199999999	69.02563000000009	802.9995300000002	-420.7104299999999	96.91215999999986	778.1117400000002	-433.4686	115.84384000000045	762.30864	-431.27605	129.9104500000003	751.2435099999999	-422.92407	31.53603000000021	822.25219	-388.09802	54.65439999999944	793.5237	-416.58106999999995	77.84498000000076	770.56686	-427.54366	95.51374000000033	754.6519700000001	-425.34512	108.45919000000049	743.9297199999999	-417.4525	23.83122000000003	814.9416300000003	-385.46617000000003	40.23106000000007	784.2220999999998	-410.38924000000003	56.960370000000694	763.99124	-418.79687	68.95755000000008	751.4889700000001	-417.01388	79.91263000000072	741.47637	-409.91907
91	0.375	198.9409999999998	914.58397	126.699	251.62539000000015	895.27018	52.037229999999994	157.6887400000005	498.81897	-45.39399999999999	143.20630999999958	107.58808	-122.64223000000001	-8.395290000000386	30.524750000000004	-35.36792	160.83799	907.89711	212.75689000000003	71.68664999999964	505.41715999999997	286.73158	-2.697650000000067	80.40822000000001	372.62121	-123.98527999999988	-2.404680000000001	250.26948999999996	131.18938999999955	1031.39039	79.20775000000003	68.20188999999937	1086.4006799999997	29.693069999999995	-0.25410999999985506	1136.3123899999998	-25.682900000000007	-69.25021000000015	1172.022	-84.06309999999999	-144.07006999999976	1210.7300300000002	-144.75580000000002	-213.81487000000016	1246.45481	-197.40382	-353.3906999999999	1323.14901	-206.1694	-99.32057000000077	1197.92513	-149.05623	-42.821530000000166	1181.4249199999997	-263.30030000000005	41.382730000000265	931.1384600000001	-277.94525	39.87325000000055	769.0412500000001	-480.2402399999999	55.552709999999934	781.20866	-514.92496	45.38682999999946	781.5423900000001	-550.31989	36.94477000000006	777.6026099999999	-574.1465599999999	28.741359999999986	770.749	-593.3063000000001	54.553469999999834	767.30564	-515.4248099999999	61.33852999999999	749.45173	-564.99707	52.99186000000009	737.36471	-598.0760700000001	41.21287999999913	734.81951	-614.6859800000001	27.01836000000003	736.06479	-625.76602	49.990240000000085	756.5954400000002	-511.3952699999999	54.14366000000064	733.38801	-557.56739	44.39534000000003	718.8438099999998	-592.96891	29.877090000000862	715.1229800000001	-612.67499	14.196289999999863	716.16949	-624.63659	46.7183100000002	749.4500199999999	-507.3022900000001	47.96646999999939	722.3485800000001	-545.18399	38.807269999999335	708.3239599999999	-575.2575199999999	24.45140999999967	704.01915	-593.84999	9.540769999999611	704.66395	-604.8999599999999	41.76486999999997	742.00163	-500.99993000000006	40.27798000000075	712.4317399999999	-531.93882	31.903659999999945	699.21699	-554.63434	20.92935999999918	695.1171500000002	-567.5252	7.4314299999996365	695.1359100000001	-576.9277500000001	-139.1863000000003	1198.0319599999998	-98.95224000000002	-187.67457000000013	1140.3910200000003	3.7336400000000003	-51.75597999999991	983.56498	-159.56154	17.08654000000024	840.3169	-364.11521	50.2825299999995	851.77839	-383.1830400000001	84.22301000000061	838.44933	-388.34419000000014	105.74066000000039	825.3046700000001	-392.6695400000001	121.86668000000009	811.0424300000001	-396.9008600000001	45.50323000000026	840.34813	-389.59003000000007	82.07416999999987	820.16449	-422.41373	108.75641999999971	798.83562	-434.37703000000005	124.9092099999998	786.29016	-432.7006600000001	137.98506999999972	776.38836	-425.1654899999999	38.52694999999949	830.1996300000001	-389.91905	70.42331999999988	805.02586	-422.11537000000004	98.50136999999995	780.46912	-435.09307	117.49120999999923	764.71796	-433.03378	131.5565200000001	753.58437	-424.77104	32.64588999999978	823.5894599999999	-389.43566999999996	56.07036999999946	795.42137	-418.2266699999999	79.43273000000045	772.7457500000002	-429.40764999999993	97.16015999999945	756.8770700000001	-427.35203	110.10559999999987	746.0886199999999	-419.55012	24.95849999999973	816.20358	-386.96831999999995	41.65182000000004	785.9580499999998	-412.27335	58.524890000000596	765.9385	-420.8967400000001	70.56787000000077	753.46322	-419.23775	81.52468000000044	743.3881099999999	-412.23467999999997
92	0.379	198.9409999999998	914.58397	126.699	251.69192999999996	895.3285799999999	52.06913	157.73292000000038	498.87229	-45.31981	143.18012	107.63754	-122.53529	-8.415890000000218	30.580249999999996	-35.24591	160.77594000000045	907.84124	212.72503	71.67375999999967	505.35198999999994	286.70833999999996	-2.714589999999589	80.36224000000001	372.68937	-124.0074399999994	-2.43952	250.33528	131.16640999999981	1031.3762899999997	79.20584	68.18588999999974	1086.38455	29.680059999999997	-0.24661999999989348	1136.3025400000001	-25.71929	-69.18839000000025	1172.0367100000003	-84.14864	-143.95786000000044	1210.7628500000003	-144.89184999999998	-213.66604000000007	1246.4912000000002	-197.58594	-353.3199799999993	1323.048	-206.30839	-99.16392999999971	1198.0915600000003	-149.12491999999997	-42.22013000000061	1182.2360599999997	-263.23938999999996	43.26486999999997	932.4598	-279.12274	43.18373000000065	773.20772	-483.67056	59.003780000000006	786.0409000000001	-518.05017	49.033150000000205	786.9477699999999	-553.49056	40.74019000000044	783.3878599999999	-577.4290999999998	32.67230000000018	776.8344499999998	-596.75074	58.066179999999804	772.14466	-518.79687	65.20172000000002	755.1833000000001	-568.63265	57.08996000000025	743.63867	-601.9628899999999	45.41420999999991	741.33388	-618.6804300000001	31.276240000000143	742.7128599999999	-629.8168	53.526020000000244	761.34725	-514.9795800000002	58.033770000000004	738.96326	-561.5234999999999	48.543690000000424	724.9964099999999	-597.2264	34.15088999999989	721.5586700000001	-617.0753999999998	18.532420000000457	722.74809	-629.10499	50.26170000000002	754.11831	-511.02969999999993	51.83473000000049	727.6848100000001	-549.36852	42.901990000000296	714.14728	-579.7319700000002	28.66787000000022	710.1069599999998	-598.47678	13.816180000000713	710.88207	-609.59754	45.30493000000024	746.5410799999999	-504.88553	44.11490000000049	717.50753	-536.34091	35.92264000000068	704.6547499999999	-559.3091199999999	25.037489999999707	700.73425	-572.3306899999999	11.591989999999896	700.8606199999999	-581.80724	-139.15553	1197.9147300000002	-99.12154000000001	-187.8644200000008	1139.7506899999998	3.1641900000000005	-50.87175000000025	984.46535	-160.70484	17.974790000000212	841.2154100000001	-365.25585	51.22802000000047	853.12182	-383.9476	85.25874000000022	840.02764	-389.11578000000003	106.86127000000033	827.04891	-393.51845	123.07688999999937	812.9270400000001	-397.8762	46.53853999999956	841.7713799999999	-390.55956999999995	83.39179999999942	822.2663300000002	-423.47763	110.24072999999953	801.2467099999999	-435.61412999999993	126.44093000000066	788.7494600000001	-434.03814	139.51810999999998	778.79041	-426.58113	39.61095000000023	831.5979500000001	-391.08741000000003	71.80903000000035	807.07263	-423.48326999999995	100.07442999999967	782.84764	-436.67602000000005	119.12408999999934	767.1519100000002	-434.75035	133.1921199999997	755.95435	-426.57921	33.75758000000042	824.9546499999999	-390.74149	57.47797999999966	797.3442300000002	-419.82887999999997	81.00874000000022	774.9509100000001	-431.22363999999993	98.79658000000018	759.13206	-429.31087	111.74587999999949	748.28172	-421.60173	26.08997999999974	817.49672	-388.43455	43.068679999999404	787.7245299999998	-414.10835	60.08327999999983	767.9178799999999	-422.94269999999995	72.17356000000018	755.47259	-421.40717000000006	83.13564000000042	745.33899	-414.49735
93	0.383	198.9409999999998	914.58397	126.699	251.69570999999996	895.33199	52.07092	157.76461000000018	498.84664	-45.22663	143.11683000000085	107.60488	-122.38858	-8.477570000000014	30.55289	-35.091730000000005	160.7724500000004	907.8379899999999	212.72321999999997	71.69428000000062	505.34470000000005	286.7134899999999	-2.6938099999997576	80.37615	372.79948	-123.9982600000003	-2.40827	250.44516	131.1649699999998	1031.37544	79.20581000000001	68.1879600000002	1086.3836199999998	29.675470000000008	-0.2255699999996068	1136.30902	-25.74064	-69.11643000000004	1172.0688999999998	-84.21429000000003	-143.8369899999998	1210.8192399999996	-145.00222999999997	-213.50805000000037	1246.5611	-197.73623	-353.25525000000016	1322.9492000000002	-206.44409	-98.9994999999999	1198.28102	-149.16991000000002	-41.71726000000035	1182.91757	-263.18224	45.0031199999994	933.6483200000001	-280.28669	46.33676999999989	777.2468	-487.0180000000001	62.2795900000001	790.73493	-521.0887799999999	52.48913999999968	792.2081399999998	-556.56038	44.335869999999886	789.02487	-580.59974	36.39660999999978	782.7702300000001	-600.0730900000001	61.40567999999985	776.84973	-522.07859	68.8726000000006	760.7767600000001	-572.15965	60.98361999999997	749.7720199999999	-605.72517	49.404780000000756	747.7054299999999	-622.5409600000002	35.31898000000001	749.21582	-633.7262800000001	56.892289999999775	765.9693400000001	-518.4709399999999	61.737740000000485	744.40699	-565.36749	52.4932000000008	731.01534	-601.3540700000001	38.2184900000002	727.8582899999999	-621.3345400000001	22.657669999999598	729.18825	-633.42398	53.638669999999365	758.65995	-514.6628299999999	55.524319999999534	732.89548	-553.44048	46.807559999999285	719.8437500000001	-584.07818	32.6884	716.0659299999999	-602.96413	17.89139999999952	716.96928	-614.14795	48.682740000000194	750.9575199999999	-508.67566	47.78088000000025	722.4635799999999	-540.63009	39.763269999999466	709.9726400000001	-563.8581000000001	28.962800000000243	706.2304600000001	-577.00207	15.566220000000612	706.46287	-586.54566	-139.1141800000005	1197.81747	-99.26705	-188.04034000000047	1139.1362999999997	2.61883	-49.993139999999585	985.38256	-161.80851	18.85400000000027	842.13527	-366.36117	52.15205999999944	854.4726300000001	-384.69011000000006	86.26821000000018	841.6092499999999	-389.8746499999999	107.95188999999937	828.79479	-394.35879000000006	124.25369000000046	814.8128600000001	-398.84439	47.54877000000033	843.204	-391.49965	84.66338999999971	824.3672199999999	-424.51312	111.67048999999952	803.6542500000002	-436.82460000000003	127.91809999999987	791.2059699999999	-435.35253	141.00017000000025	781.1918800000001	-427.97825	40.66985999999997	833.0093599999999	-392.2199	73.14919999999984	809.12442	-424.8128699999999	101.59275999999954	785.22888	-438.22179	120.70227999999952	769.58976	-436.43359	134.7769499999995	758.3307699999999	-428.35884999999996	34.84465999999975	826.33579	-392.00685999999996	58.842829999999594	799.27816	-421.38443	82.53409999999985	777.16568	-432.99306000000007	100.38245000000006	761.39808	-431.22643000000005	113.33929999999964	750.4884099999999	-423.61433	27.19851000000017	818.8097099999999	-389.85525	44.44676999999956	789.5086500000001	-415.88887	61.59683000000041	769.91463	-424.93297	73.73459999999977	757.5007799999998	-423.52264	84.70529999999962	747.31122	-416.7094900000001
